{"title":"Chalet Girl 2011 R5  XViD - IMAGiNE","uid":6385386,"size":1470465094,"categoryP":"video","categoryS":"movies","magnet":"?xt=urn:btih:2b645a9e5f66ed7300f45692deae41e998b3381b&amp;dn=Chalet+Girl+2011+R5++XViD+-+IMAGiNE&amp;tr=udp%3A%2F%2Ftracker.openbittorrent.com%3A80&amp;tr=udp%3A%2F%2Fopen.demonii.com%3A1337&amp;tr=udp%3A%2F%2Ftracker.coppersurfer.tk%3A6969&amp;tr=udp%3A%2F%2Fexodus.desync.com%3A6969","seeders":0,"leechers":1,"uploader":"SAFCukO09","files":2,"time":1305189516,"description":"*********** **** **** *** ******** *********** **** *** **********\n*+* +*+*+* *+*+*+ *+* *+* *+* *+* *+* *+*+* *+* *+*\n+*+ +*+ +*+*+ +*+ +*+ +*+ +*+ +*+ *+*+*+ +*+ +*+\n+$+ +$+ +*+ +$+ +$++*++$++* *$* +$+ +$+ +*+ +$+ +$++*++$\n+$+ +$+ +$+ +$+ +$+ +$+ +$+$ +$+ +$+ +$+$+$ +$+\n$+$ $+$ $+$ $+$ $+$ $+$ $+$ $+$ $+$ $+$+$ $+$\n$$$$$$$$$$$ $$$ $$$ $$$ $$$ $$$$$$$$ $$$$$$$$$$$ $$$ $$$$ $$$$$$$$$$\n\n\n\n\nAnother Fine Release Brought to you from - IMAGiNE\n\n\n********************************************************************************************************************\nChalet Girl 2011 R5 XViD - IMAGiNE\n********************************************************************************************************************\n\nRipper ...........: IMAGiNE IMDB Rating.......: 5.8/10\nVideo Codec.......: XVID Release Date......: 11/05/11\nAudio Codec.......: AC3 Theatre Date......: 17/02/11\nAudio Bitrate.....: 448 Runtime.......: 1h 32mn\nSubtitles.........: NIL Language..........: ENGLISH\nResolution......: 720x 384 IMDb URL..........: http://www.imdb.com/title/tt1487118/\n\n\nDETAILS:\n\nVideo\nID : 0\nFormat : MPEG-4 Visual\nFormat profile : Advanced Simple@L5\nFormat settings, BVOP : 2\nFormat settings, QPel : No\nFormat settings, GMC : No warppoints\nFormat settings, Matrix : Default (MPEG)\nMuxing mode : Packed bitstream\nCodec ID : XVID\nCodec ID/Hint : XviD\nDuration : 1h 32mn\nBit rate : 1 659 Kbps\nWidth : 720 pixels\nHeight : 384 pixels\nDisplay aspect ratio : 1.875\nFrame rate : 25.000 fps\nColor space : YUV\nChroma subsampling : 4:2:0\nBit depth : 8 bits\nScan type : Progressive\nCompression mode : Lossy\nBits/(Pixel*Frame) : 0.240\nStream size : 1.07 GiB (78%)\nWriting library : XviD 61\n\nAudio\nID : 1\nFormat : AC-3\nFormat/Info : Audio Coding 3\nMode extension : CM (complete main)\nCodec ID : 2000\nDuration : 1h 32mn\nBit rate mode : Constant\nBit rate : 448 Kbps\nChannel(s) : 6 channels\nChannel positions : Front: L C R, Side: L R, LFE\nSampling rate : 48.0 KHz\nBit depth : 16 bits\nCompression mode : Lossy\nStream size : 297 MiB (21%)\nAlignment : Aligned on interleaves\nInterleave, duration : 40 ms (1.00 video frame)\nInterleave, preload duration : 512 ms\n\n\n\nSOURCES:\n\nVIDEO: Kak.vyjti.zamuzh.za.milliardera.2011.D.DVD.ELEKTRI4KA\nAUDIO: Kak.vyjti.zamuzh.za.milliardera.2011.D.DVD.ELEKTRI4KA Thanx Matey\n\nNOTES:\n\nIMAGiNE bringing you another release..........\nChalet Girl......\nWell here we are with our version, not too much to say\nthe source was nice so not much work was needed....\nThe usual crop resize sharpen yada yada\nAudio is nice english studio we remuxed to our encode\nEnjoy Folks!","torrent":{"xt":"urn:btih:2b645a9e5f66ed7300f45692deae41e998b3381b","amp;dn":"Chalet+Girl+2011+R5++XViD+-+IMAGiNE","amp;tr":["udp%3A%2F%2Ftracker.openbittorrent.com%3A80","udp%3A%2F%2Fopen.demonii.com%3A1337","udp%3A%2F%2Ftracker.coppersurfer.tk%3A6969","udp%3A%2F%2Fexodus.desync.com%3A6969"],"infoHash":"2b645a9e5f66ed7300f45692deae41e998b3381b","infoHashBuffer":{"type":"Buffer","data":[43,100,90,158,95,102,237,115,0,244,86,146,222,174,65,233,152,179,56,27]},"announce":[],"urlList":[]}}